<svg width="20" height="20" viewBox="0 0 20 20" fill="none" xmlns="http://www.w3.org/2000/svg">
<g clip-path="url(#clip0_437_7865)">
<mask id="mask0_437_7865" style="mask-type:alpha" maskUnits="userSpaceOnUse" x="0" y="0" width="20" height="20">
<rect width="20" height="20" fill="#D9D9D9"/>
</mask>
<g mask="url(#mask0_437_7865)">
<path d="M7.625 10L8.54167 9.08333C8.69444 8.93056 8.77083 8.75347 8.77083 8.55208C8.77083 8.35069 8.69778 8.17361 8.55167 8.02083C8.39222 7.86806 8.21181 7.79167 8.01042 7.79167C7.80903 7.79167 7.63194 7.86806 7.47917 8.02083L6.02083 9.47917C5.86806 9.62694 5.79167 9.79931 5.79167 9.99625C5.79167 10.1932 5.86806 10.3681 6.02083 10.5208L7.47917 11.9792C7.62736 12.1319 7.80326 12.2049 8.00688 12.1979C8.21063 12.191 8.39222 12.1111 8.55167 11.9583C8.69778 11.8056 8.77083 11.6285 8.77083 11.4271C8.77083 11.2257 8.69444 11.0486 8.54167 10.8958L7.625 10ZM12.375 10L11.4583 10.9167C11.3056 11.0694 11.2292 11.2465 11.2292 11.4479C11.2292 11.6493 11.3022 11.8264 11.4483 11.9792C11.6078 12.1319 11.7882 12.2083 11.9896 12.2083C12.191 12.2083 12.3681 12.1319 12.5208 11.9792L13.9792 10.5208C14.1319 10.3731 14.2083 10.2007 14.2083 10.0037C14.2083 9.80681 14.1319 9.63194 13.9792 9.47917L12.5208 8.02083C12.3681 7.86806 12.1944 7.79167 12 7.79167C11.8056 7.79167 11.6286 7.86806 11.4692 8.02083C11.3231 8.17361 11.25 8.35069 11.25 8.55208C11.25 8.75347 11.3264 8.93056 11.4792 9.08333L12.375 10ZM4.5 17C4.0875 17 3.73437 16.8531 3.44062 16.5594C3.14687 16.2656 3 15.9125 3 15.5V4.5C3 4.0875 3.14687 3.73438 3.44062 3.44063C3.73437 3.14688 4.0875 3 4.5 3H8.0625C8.17361 2.56944 8.40625 2.21181 8.76042 1.92708C9.11458 1.64236 9.52778 1.5 10 1.5C10.4722 1.5 10.8854 1.64236 11.2396 1.92708C11.5938 2.21181 11.8264 2.56944 11.9375 3H15.5C15.9125 3 16.2656 3.14688 16.5594 3.44063C16.8531 3.73438 17 4.0875 17 4.5V15.5C17 15.9125 16.8531 16.2656 16.5594 16.5594C16.2656 16.8531 15.9125 17 15.5 17H4.5ZM4.5 15.5H15.5V4.5H4.5V15.5ZM10 4C10.1444 4 10.2639 3.95278 10.3583 3.85833C10.4528 3.76389 10.5 3.64444 10.5 3.5C10.5 3.35556 10.4528 3.23611 10.3583 3.14167C10.2639 3.04722 10.1444 3 10 3C9.85556 3 9.73611 3.04722 9.64167 3.14167C9.54722 3.23611 9.5 3.35556 9.5 3.5C9.5 3.64444 9.54722 3.76389 9.64167 3.85833C9.73611 3.95278 9.85556 4 10 4Z" fill="#BAC8DE"/>
</g>
</g>
<defs>
<clipPath id="clip0_437_7865">
<rect width="20" height="20" fill="white"/>
</clipPath>
</defs>
</svg>
